<svg width="23" height="24" viewBox="0 0 23 24" fill="none" xmlns="http://www.w3.org/2000/svg">
<path d="M10.9656 11.7981C14.2191 11.8022 16.8727 9.14556 16.8559 5.89906C16.8559 4.73257 16.5109 3.59226 15.8645 2.62228C15.2181 1.6523 14.2993 0.896198 13.2243 0.449555C12.1492 0.00291131 10.9662 -0.114223 9.8248 0.11296C8.68337 0.340142 7.63475 0.901441 6.81151 1.7259C5.98826 2.55037 5.42735 3.60098 5.19967 4.74493C4.97199 5.88888 5.08777 7.07482 5.53237 8.15283C5.97698 9.23083 6.73044 10.1525 7.69752 10.8014C8.6646 11.4502 9.80188 11.7971 10.9656 11.7981ZM10.9796 1.64101C12.1093 1.64312 13.1924 2.09284 13.9926 2.89212C14.7929 3.6914 15.2454 4.7754 15.2516 5.90778C15.2596 8.26539 13.3363 10.1913 10.9716 10.1926C10.4069 10.1992 9.84661 10.0934 9.32307 9.88121C8.79954 9.66905 8.32324 9.35481 7.9218 8.95671C7.52035 8.55862 7.20175 8.08459 6.98447 7.56212C6.76719 7.03965 6.65556 6.47914 6.65605 5.9131C6.65654 5.34705 6.76913 4.78673 6.98731 4.26464C7.20549 3.74255 7.5249 3.26907 7.92703 2.87167C8.32916 2.47427 8.806 2.16086 9.3299 1.9496C9.85379 1.73834 10.4143 1.63345 10.979 1.64101H10.9796Z" fill="#161616"/>
<path d="M17.7095 11.9249C16.7082 12.1697 15.8289 12.7693 15.2339 13.6129C14.6389 14.4566 14.3683 15.4875 14.4721 16.5154C14.4828 16.5837 14.4761 16.6536 14.4527 16.7186C14.4293 16.7836 14.39 16.8417 14.3384 16.8875C13.5833 17.6322 12.8383 18.3877 12.0833 19.1331C11.9825 19.2271 11.9026 19.3414 11.8489 19.4684C11.7952 19.5955 11.7689 19.7325 11.7717 19.8705C11.7764 20.6307 11.7717 21.3909 11.7717 22.1497C11.7717 22.7141 12.0934 23.0305 12.6605 23.0326C13.4041 23.0359 14.1471 23.0245 14.8907 23.0372C15.0443 23.0444 15.1976 23.0179 15.3399 22.9595C15.4822 22.9012 15.6101 22.8124 15.7146 22.6994C16.4576 21.9419 17.2126 21.1965 17.9616 20.445C18.0406 20.3659 18.1094 20.315 18.2398 20.331C20.7644 20.6414 22.996 18.6505 23 16.0898C23.004 13.3092 20.4146 11.276 17.7095 11.9249ZM18.1108 18.6867C17.7403 18.6029 17.4474 18.6867 17.1805 18.9548C16.4249 19.723 15.6558 20.4779 14.9008 21.2467C14.8439 21.3114 14.7727 21.3618 14.693 21.3939C14.6132 21.426 14.527 21.439 14.4413 21.4318C14.1663 21.4147 13.8905 21.4147 13.6154 21.4318C13.4054 21.4472 13.356 21.3647 13.3747 21.1784C13.3887 21.0376 13.3747 20.8941 13.3747 20.752C13.251 20.2727 13.4937 19.9617 13.8234 19.65C14.5035 19.0078 15.1462 18.326 15.8163 17.6738C16.1146 17.3835 16.2095 17.0705 16.1212 16.6589C15.8016 15.1566 16.7372 13.7415 18.2211 13.4506C19.6803 13.1644 21.076 14.1323 21.3602 15.6286C21.7153 17.4948 19.9946 19.1164 18.1094 18.6867H18.1108Z" fill="#161616"/>
<path d="M4.42169 15.6063C6.33699 14.7348 8.36731 14.3996 10.4525 14.3407C11.154 14.3205 11.8568 14.3534 12.5564 14.3882C12.6609 14.3936 12.7655 14.3777 12.8638 14.3416C12.9622 14.3055 13.0522 14.2499 13.1286 14.1781C13.205 14.1064 13.2662 14.0199 13.3085 13.9239C13.3509 13.8279 13.3734 13.7243 13.3749 13.6194C13.3795 13.5147 13.3634 13.4101 13.3275 13.3117C13.2917 13.2133 13.2368 13.1229 13.166 13.0458C13.0953 12.9687 13.01 12.9064 12.9151 12.8624C12.8203 12.8184 12.7177 12.7936 12.6132 12.7895C10.3301 12.6239 8.0744 12.7781 5.85883 13.3928C4.35213 13.8097 2.92435 14.3983 1.71258 15.4145C0.869285 16.1244 0.225278 16.9744 0.0554157 18.0993C-0.0422218 18.7455 0.0193032 19.4011 0.017297 20.0527C0.017297 21.2231 0.771647 21.9746 1.94397 21.9766C3.23064 21.9766 4.51799 21.9766 5.80466 21.9766C7.16624 21.9766 8.52848 21.9766 9.89005 21.9766C9.99445 21.9794 10.0984 21.9616 10.1959 21.9242C10.2934 21.8867 10.3826 21.8304 10.4584 21.7584C10.5342 21.6863 10.5951 21.6 10.6375 21.5044C10.68 21.4087 10.7032 21.3056 10.7059 21.201C10.7166 20.7646 10.3876 20.4127 9.93218 20.3765C9.84859 20.3698 9.765 20.3765 9.6814 20.3765H2.01084C1.63233 20.3765 1.61962 20.3637 1.61962 19.9743C1.61962 19.5848 1.63567 19.204 1.61962 18.8206C1.58284 18.1134 1.85502 17.5362 2.32783 17.0368C2.919 16.4047 3.64259 15.9602 4.42169 15.6063Z" fill="#161616"/>
<path d="M18.7518 14.9294C18.5982 14.9242 18.4451 14.9497 18.3015 15.0046C18.1578 15.0594 18.0265 15.1424 17.9152 15.2487C17.8039 15.355 17.7149 15.4825 17.6534 15.6237C17.5918 15.7648 17.559 15.9169 17.5568 16.071C17.5545 16.225 17.583 16.378 17.6404 16.5209C17.6979 16.6638 17.7832 16.7938 17.8913 16.9033C17.9995 17.0128 18.1284 17.0996 18.2704 17.1585C18.4124 17.2175 18.5647 17.2475 18.7184 17.2468C18.8709 17.2476 19.022 17.2182 19.1631 17.1605C19.3043 17.1027 19.4327 17.0177 19.5411 16.9102C19.6495 16.8027 19.7356 16.6748 19.7947 16.534C19.8538 16.3931 19.8846 16.2419 19.8854 16.0891C19.8877 15.7848 19.7698 15.4921 19.5574 15.2747C19.3449 15.0574 19.0553 14.9333 18.7518 14.9294Z" fill="#161616"/>
</svg>
