<svg width="19" height="25" viewBox="0 0 19 25" fill="none" xmlns="http://www.w3.org/2000/svg">
<path d="M19.0007 12.6035C19.0007 10.9601 18.0561 9.75401 16.4615 9.36632C16.3026 9.32769 16.2694 9.26647 16.2708 9.11489C16.2788 8.34314 16.2766 7.57065 16.2708 6.79817C16.2752 6.0981 16.1761 5.40129 15.9769 4.73068C14.9824 1.46585 11.7976 -0.486497 8.43147 0.105254C5.4936 0.622673 3.23171 3.14418 3.01505 6.14593C2.94283 7.12611 2.99338 8.10775 2.98833 9.08866C2.98833 9.26647 2.94283 9.33279 2.77167 9.3736C1.23413 9.73361 0.258453 10.9674 0.254842 12.5495C0.25099 15.6103 0.25099 18.6726 0.254842 21.7363C0.250817 21.9005 0.259994 22.0647 0.282285 22.2274C0.55455 23.9036 1.82416 24.9931 3.51191 24.9967C5.55041 25.0011 7.58939 25.0011 9.62886 24.9967C11.6409 24.9967 13.6529 24.9967 15.6649 24.9967C15.8822 25.0034 16.0997 24.9912 16.3149 24.9603C17.9268 24.6812 19.0007 23.3956 19.0029 21.7392C19.0048 18.693 19.0041 15.6477 19.0007 12.6035ZM4.7093 9.03692C4.73891 8.0837 4.67392 7.12903 4.74975 6.17581C4.92235 4.01504 6.69099 2.11881 8.82434 1.80326C11.5932 1.39443 14.019 3.16167 14.482 5.94042C14.5939 6.61525 14.5354 7.30101 14.5419 7.98095C14.5455 8.33512 14.5311 8.69076 14.547 9.0442C14.5556 9.2366 14.4971 9.28469 14.3086 9.28396C12.7473 9.27668 11.1859 9.27959 9.62524 9.27959C8.06459 9.27959 6.51983 9.27959 4.96929 9.28396C4.77575 9.28542 4.7028 9.25554 4.7093 9.03692ZM17.2638 21.8288C17.2638 22.653 16.629 23.2462 15.7689 23.2484C13.7128 23.2535 11.656 23.2484 9.59925 23.2484C7.59662 23.2484 5.59399 23.2244 3.59208 23.2586C2.61134 23.2754 1.96787 22.5423 1.97654 21.6328C2.00687 18.6351 2.00687 15.6373 1.97654 12.6392C1.96932 11.804 2.53407 10.9463 3.6903 11.0359C3.83473 11.0468 3.97917 11.0519 4.12361 11.0519C7.81303 11.0519 11.5025 11.0519 15.1919 11.0519C15.4808 11.0519 15.7653 11.006 16.0585 11.057C16.754 11.1787 17.2667 11.7406 17.2682 12.449C17.2725 15.5778 17.2711 18.7044 17.2638 21.8288Z" fill="#161616"/>
<path d="M9.08211 13.139C8.54656 13.2553 8.06109 13.5393 7.69497 13.9505C7.32885 14.3617 7.10081 14.8791 7.04337 15.4288C6.91915 16.5066 7.52651 17.5888 8.54191 18.0567C8.72029 18.1391 8.77879 18.228 8.7694 18.416C8.75495 18.7242 8.7694 19.0332 8.7694 19.3422C8.7694 19.6512 8.7694 19.9595 8.7694 20.2685C8.7694 20.8216 9.13049 21.2159 9.63097 21.2159C10.1314 21.2159 10.4976 20.826 10.5012 20.275C10.5012 19.6665 10.5106 19.058 10.4969 18.4531C10.4925 18.2469 10.5445 18.1427 10.7439 18.0501C11.319 17.7769 11.7742 17.2994 12.0226 16.7089C12.271 16.1185 12.2952 15.4564 12.0905 14.8491C11.8859 14.2417 11.4668 13.7318 10.9132 13.4165C10.3596 13.1012 9.71032 13.0027 9.08933 13.1398L9.08211 13.139ZM9.63675 16.5511C9.52421 16.5548 9.41208 16.5358 9.30692 16.4952C9.20175 16.4546 9.10567 16.3933 9.02429 16.3147C8.94291 16.2362 8.87788 16.1421 8.83299 16.0379C8.78811 15.9337 8.76428 15.8215 8.7629 15.7079C8.7606 15.476 8.8497 15.2526 9.0106 15.087C9.1715 14.9213 9.39102 14.827 9.62086 14.8247C9.8507 14.8223 10.072 14.9123 10.2362 15.0746C10.4003 15.237 10.4939 15.4585 10.4962 15.6904C10.4973 15.8043 10.4759 15.9173 10.433 16.0227C10.3901 16.1281 10.3268 16.2237 10.2467 16.304C10.1665 16.3842 10.0713 16.4474 9.96651 16.4899C9.86175 16.5323 9.74962 16.5531 9.63675 16.5511Z" fill="#161616"/>
</svg>
