<svg width="22" height="22" viewBox="0 0 22 22" fill="none" xmlns="http://www.w3.org/2000/svg">
<path d="M14.7501 20.4392H2.37715C2.25838 20.4394 2.14113 20.4125 2.03423 20.3607C1.92732 20.3088 1.83355 20.2333 1.75999 20.1398C1.68642 20.0464 1.63498 19.9374 1.60953 19.8211C1.58409 19.7048 1.58531 19.5842 1.61309 19.4685C1.65159 19.2933 1.69305 19.1182 1.74044 18.946C2.09527 17.6701 2.73728 16.4927 3.61711 15.5044C4.49693 14.5161 5.59113 13.7432 6.81557 13.2452C8.04001 12.7472 9.36208 12.5373 10.6801 12.6316C11.9981 12.726 13.277 13.1221 14.4185 13.7894C14.5466 13.8725 14.6966 13.9151 14.8491 13.912C15.0017 13.9088 15.1497 13.8599 15.2743 13.7716C15.4002 13.6929 15.4994 13.578 15.5591 13.4419C15.6188 13.3058 15.6362 13.1548 15.609 13.0087C15.5874 12.881 15.5355 12.7604 15.4577 12.6571C15.3798 12.5538 15.2784 12.4707 15.1618 12.4149C14.6229 12.1004 14.0593 11.8304 13.4767 11.6075C14.6178 10.8686 15.4898 9.77942 15.9623 8.5027C16.4348 7.22598 16.4825 5.83027 16.0983 4.52412C15.7141 3.21797 14.9185 2.07152 13.8306 1.25608C12.7426 0.440642 11.4206 0 10.0622 0C8.7037 0 7.38172 0.440642 6.29375 1.25608C5.20578 2.07152 4.41024 3.21797 4.02601 4.52412C3.64178 5.83027 3.68949 7.22598 4.16201 8.5027C4.63453 9.77942 5.50648 10.8686 6.64758 11.6075L6.50543 11.6609C5.20737 12.1434 4.02107 12.8861 3.01899 13.8436C2.01692 14.8012 1.22012 15.9535 0.67727 17.2301C0.340331 17.932 0.114527 18.6821 0.00797877 19.4536C-0.0191733 19.7828 0.0231546 20.114 0.132205 20.4256C0.241256 20.7373 0.414582 21.0224 0.640892 21.2624C0.867203 21.5025 1.14142 21.692 1.44568 21.8187C1.74994 21.9454 2.07741 22.0064 2.40677 21.9978H14.7442C14.8014 22.0007 14.8588 22.0007 14.916 21.9978C15.0187 21.9869 15.1182 21.9558 15.2089 21.9063C15.2996 21.8569 15.3796 21.79 15.4445 21.7095C15.5094 21.629 15.5579 21.5365 15.5871 21.4372C15.6163 21.3379 15.6258 21.2339 15.6149 21.1309C15.604 21.028 15.573 20.9283 15.5237 20.8374C15.4743 20.7464 15.4076 20.6662 15.3273 20.6011C15.247 20.5361 15.1547 20.4875 15.0557 20.4582C14.9566 20.4289 14.8528 20.4194 14.7501 20.4303V20.4392ZM5.33861 6.26387C5.34623 5.33019 5.62956 4.41968 6.15287 3.64726C6.67619 2.87483 7.41602 2.2751 8.27901 1.92375C9.142 1.57239 10.0895 1.48516 11.0019 1.67306C11.9143 1.86096 12.7507 2.31557 13.4056 2.97952C14.0605 3.64347 14.5046 4.48701 14.6817 5.40369C14.8589 6.32036 14.7612 7.2691 14.4009 8.13017C14.0407 8.99124 13.4342 9.72606 12.6577 10.2419C11.8813 10.7577 10.9699 11.0315 10.0385 11.0286C9.41698 11.0278 8.80181 10.9037 8.22845 10.6633C7.6551 10.4229 7.13492 10.0711 6.69795 9.62808C6.26099 9.18509 5.91588 8.65971 5.68257 8.08229C5.44926 7.50486 5.33236 6.88683 5.33861 6.26387Z" fill="#161616"/>
<path d="M21.1272 16.5117C20.4313 16.5117 19.7383 16.5117 19.0542 16.5117C18.8913 16.5117 18.8558 16.4672 18.8558 16.3099C18.8558 15.6152 18.8558 14.9205 18.8558 14.2318C18.8675 14.1217 18.856 14.0103 18.8219 13.9049C18.7879 13.7995 18.7321 13.7025 18.6583 13.6201C18.5844 13.5378 18.4941 13.4719 18.3931 13.4268C18.2922 13.3817 18.183 13.3584 18.0725 13.3584C17.962 13.3584 17.8527 13.3817 17.7518 13.4268C17.6509 13.4719 17.5605 13.5378 17.4866 13.6201C17.4128 13.7025 17.357 13.7995 17.323 13.9049C17.289 14.0103 17.2774 14.1217 17.2892 14.2318C17.2892 14.9116 17.2892 15.5885 17.2892 16.2683C17.2892 16.4494 17.2595 16.5147 17.0552 16.5117C16.38 16.5117 15.7018 16.5117 15.0236 16.5117C14.9138 16.5 14.8027 16.5115 14.6975 16.5457C14.5924 16.5798 14.4956 16.6357 14.4134 16.7097C14.3313 16.7838 14.2656 16.8743 14.2206 16.9755C14.1756 17.0767 14.1523 17.1862 14.1523 17.297C14.1523 17.4077 14.1756 17.5172 14.2206 17.6184C14.2656 17.7196 14.3313 17.8101 14.4134 17.8842C14.4956 17.9582 14.5924 18.0141 14.6975 18.0482C14.8027 18.0824 14.9138 18.0939 15.0236 18.0822C15.7196 18.0822 16.4126 18.0822 17.0967 18.0822C17.2507 18.0822 17.2921 18.1178 17.2862 18.2692C17.2862 18.6284 17.2862 18.9876 17.2862 19.3498C17.2862 19.712 17.2862 20.0355 17.2862 20.3769C17.2796 20.4841 17.295 20.5915 17.3314 20.6925C17.3678 20.7935 17.4244 20.8859 17.4978 20.9642C17.5712 21.0424 17.6597 21.1047 17.7581 21.1473C17.8564 21.19 17.9624 21.2119 18.0695 21.2119C18.1766 21.2119 18.2826 21.19 18.3809 21.1473C18.4792 21.1047 18.5678 21.0424 18.6412 20.9642C18.7146 20.8859 18.7712 20.7935 18.8076 20.6925C18.844 20.5915 18.8594 20.4841 18.8528 20.3769C18.8528 19.6971 18.8528 19.0203 18.8528 18.3404C18.8528 18.1475 18.8854 18.0792 19.0986 18.0851C19.7768 18.1 20.455 18.0851 21.1331 18.0851C21.243 18.0969 21.3541 18.0853 21.4592 18.0512C21.5644 18.0171 21.6612 17.9612 21.7433 17.8872C21.8255 17.8131 21.8912 17.7226 21.9362 17.6214C21.9812 17.5202 22.0044 17.4107 22.0044 17.2999C22.0044 17.1892 21.9812 17.0796 21.9362 16.9785C21.8912 16.8773 21.8255 16.7867 21.7433 16.7127C21.6612 16.6386 21.5644 16.5827 21.4592 16.5486C21.3541 16.5145 21.243 16.503 21.1331 16.5147L21.1272 16.5117Z" fill="#161616"/>
</svg>
