<svg width="22" height="23" viewBox="0 0 22 23" fill="none" xmlns="http://www.w3.org/2000/svg">
<path d="M20.8633 13.0954C20.3135 12.5791 19.9135 11.9221 19.706 11.1947C19.5576 10.4725 19.5062 9.73342 19.5532 8.9974C19.5972 8.08212 19.5145 7.16513 19.3075 6.27275C18.9903 4.95332 18.3525 3.73377 17.4515 2.72348C16.5504 1.71319 15.4142 0.943764 14.1448 0.484222C12.8754 0.0246798 11.5125 -0.110608 10.1783 0.0904949C8.84418 0.291597 7.58049 0.8228 6.50062 1.63645C5.57274 2.30244 4.79941 3.16298 4.23395 4.15875C3.66848 5.15452 3.32432 6.26183 3.2252 7.40436C3.16885 8.24175 3.15609 9.08154 3.18698 9.92027C3.20847 10.5281 3.09909 11.1334 2.86636 11.6947C2.63362 12.256 2.28302 12.7601 1.8386 13.1723C1.33886 13.6179 0.98941 14.2091 0.838759 14.8637C0.688108 15.5183 0.743732 16.2039 0.997909 16.8253C1.24539 17.4444 1.67381 17.9733 2.2265 18.3421C2.77919 18.7109 3.43011 18.9022 4.09318 18.8907C4.82469 18.8907 5.5562 18.8907 6.2768 18.8907C6.44057 18.8907 6.517 18.8907 6.56067 19.105C6.80587 20.1807 7.3965 21.1452 8.2412 21.8492C9.08589 22.5533 10.1376 22.9576 11.2336 22.9997C12.3738 23.0125 13.4839 22.6311 14.3781 21.9192C15.2724 21.2073 15.8967 20.208 16.1467 19.0885C16.1849 18.9237 16.2395 18.8852 16.3924 18.8907C17.1676 18.8907 17.9428 18.8907 18.7179 18.8907C18.9496 18.8957 19.1809 18.8698 19.4058 18.8138C20.0017 18.6893 20.5493 18.3945 20.9831 17.9649C21.4168 17.5353 21.7183 16.9889 21.8514 16.3913C22.0219 15.8047 22.0193 15.1808 21.8439 14.5957C21.6684 14.0105 21.3278 13.4893 20.8633 13.0954ZM11.3919 21.3572C10.6681 21.3567 9.96484 21.1149 9.39201 20.6697C8.81918 20.2245 8.40904 19.6008 8.22567 18.8962H14.509C14.2907 20.2036 12.8331 21.3517 11.3919 21.3572ZM20.2301 16.1771C20.125 16.5013 19.9192 16.783 19.6431 16.9808C19.3669 17.1786 19.035 17.282 18.6961 17.2757H4.02222C3.74973 17.27 3.48281 17.197 3.24488 17.0633C3.00695 16.9295 2.8053 16.739 2.65762 16.5085C2.50994 16.278 2.42074 16.0145 2.39787 15.7413C2.375 15.468 2.41915 15.1932 2.52644 14.9411C2.60841 14.7528 2.72939 14.5842 2.88128 14.4467C3.50715 13.8879 4.0054 13.1994 4.34181 12.4285C4.67822 11.6576 4.84482 10.8225 4.83015 9.9807C4.79285 9.16027 4.80743 8.33828 4.87383 7.51972C4.97645 6.41235 5.36629 5.35153 6.00434 4.4434C6.6424 3.53528 7.50628 2.8117 8.50954 2.34508C9.43703 1.89075 10.458 1.66324 11.4894 1.68108C12.5208 1.69892 13.5334 1.9616 14.4448 2.44773C15.3563 2.93387 16.1407 3.62972 16.7343 4.47864C17.3279 5.32755 17.7139 6.30553 17.8609 7.33295C17.9419 8.0992 17.9601 8.87085 17.9155 9.64011C17.8605 10.7738 18.1114 11.9013 18.6415 12.9031C18.9559 13.4624 19.3536 13.97 19.8207 14.4083C20.0632 14.6237 20.2329 14.9098 20.3063 15.2268C20.3797 15.5438 20.3531 15.876 20.2301 16.1771Z" fill="#161616"/>
</svg>
